<svg width="24" height="24" viewBox="0 0 24 24" fill="none" xmlns="http://www.w3.org/2000/svg"><rect x="3" y="3" width="18" height="18" rx="2" stroke="#C5C5C5" stroke-width="2"/><path d="M7 7C7 6.44772 7.44772 6 8 6H16C16.5523 6 17 6.44772 17 7V9C17 9.55228 16.5523 10 16 10H8C7.44772 10 7 9.55228 7 9V7Z" fill="#C5C5C5"/><path d="M7 13C7 12.4477 7.44772 12 8 12H16C16.5523 12 17 12.4477 17 13V15C17 15.5523 16.5523 16 16 16H8C7.44772 16 7 15.5523 7 15V13Z" fill="#C5C5C5"/><path d="M8 18C7.44772 18 7 18.4477 7 19V21C7 21.5523 7.44772 22 8 22H16C16.5523 22 17 21.5523 17 21V19C17 18.4477 16.5523 18 16 18H8Z" fill="#C5C5C5"/><path d="M19 7L21 9M19 9L21 7" stroke="#C5C5C5" stroke-width="1.5" stroke-linecap="round"/></svg>
